<?xml version="1.0" standalone="no"?>
<!DOCTYPE svg PUBLIC "-//W3C//DTD SVG 20010904//EN"
 "http://www.w3.org/TR/2001/REC-SVG-20010904/DTD/svg10.dtd">
<svg version="1.0" xmlns="http://www.w3.org/2000/svg"
 width="700.000000pt" height="700.000000pt" viewBox="0 0 700.000000 700.000000"
 preserveAspectRatio="xMidYMid meet">
<metadata>
Created by potrace 1.14, written by Peter Selinger 2001-2017
</metadata>
<g transform="translate(0.000000,700.000000) scale(0.100000,-0.100000)"
fill="#000000" stroke="none">
<path d="M2778 6254 c-47 -25 -126 -215 -153 -367 -17 -99 -11 -293 11 -369 3
-9 6 -25 8 -35 2 -10 40 -128 84 -263 94 -287 111 -367 107 -499 -3 -97 -28
-196 -75 -293 -41 -86 -33 -130 29 -162 25 -14 32 -13 68 5 35 17 46 31 75 97
34 73 69 190 84 277 21 122 7 321 -32 454 -9 31 -18 63 -20 71 -2 8 -19 60
-39 115 -105 297 -120 362 -119 510 2 116 21 189 80 307 13 26 24 60 24 76 0
30 -39 81 -62 83 -7 0 -20 2 -29 4 -8 1 -27 -3 -41 -11z"/>
<path d="M2080 5804 c-53 -34 -110 -199 -114 -334 -4 -121 11 -192 74 -350 58
-145 68 -190 65 -291 -2 -69 -27 -194 -46 -230 -28 -54 -13 -126 32 -150 27
-14 81 -4 102 19 20 22 62 115 77 173 41 149 29 329 -29 464 -46 105 -73 179
-82 225 -17 78 -5 191 31 303 34 106 33 136 -7 167 -31 24 -69 25 -103 4z"/>
<path d="M3455 5796 c-66 -66 -110 -224 -108 -383 1 -85 -1 -76 113 -397 43
-119 38 -256 -14 -406 -13 -36 -21 -76 -19 -90 4 -32 56 -80 87 -80 89 0 170
214 161 420 -5 113 -17 159 -78 311 -56 136 -68 194 -61 288 5 68 32 180 56
228 16 31 3 91 -24 113 -33 28 -83 26 -113 -4z"/>
<path d="M1399 3749 c-44 -9 -79 -38 -103 -84 -20 -39 -20 -53 -20 -995 0
-525 3 -978 6 -1007 8 -62 57 -164 101 -208 49 -49 140 -110 194 -130 88 -32
100 -55 104 -183 3 -83 12 -92 102 -93 79 -1 176 -5 337 -13 469 -24 1261 -25
1590 -1 30 2 91 7 135 10 99 7 115 20 116 104 1 115 12 134 97 173 155 71 248
162 288 281 17 48 18 125 19 1027 1 536 -3 989 -7 1006 -11 42 -42 81 -81 101
-29 15 -155 16 -1439 17 -774 1 -1421 -2 -1439 -5z m1677 -572 c241 -72 392
-291 386 -562 -3 -126 -22 -211 -74 -335 -110 -260 -316 -452 -539 -505 -89
-20 -227 -14 -309 14 -225 78 -362 284 -363 546 0 117 8 171 44 278 49 149
115 255 228 367 110 110 257 190 375 207 23 3 43 7 44 8 10 9 163 -5 208 -18z"/>
<path d="M2845 3005 c-220 -51 -418 -275 -478 -540 -26 -114 -17 -241 23 -315
15 -29 53 -42 87 -29 27 9 40 27 109 149 25 45 144 246 213 362 175 293 201
342 187 362 -16 24 -67 28 -141 11z"/>
<path d="M3132 2815 c-7 -8 -54 -86 -104 -172 -50 -87 -106 -182 -124 -211
-19 -29 -34 -54 -34 -57 0 -2 -39 -68 -86 -147 -108 -179 -115 -193 -102 -231
17 -46 58 -58 128 -37 252 76 466 351 476 611 4 96 -20 204 -51 239 -22 24
-84 26 -103 5z"/>
<path d="M4715 3591 c-116 -21 -147 -30 -157 -45 -4 -6 -8 -44 -8 -84 0 -94 7
-97 144 -65 205 47 279 40 389 -34 112 -76 172 -187 176 -326 6 -160 5 -397
-2 -473 -24 -270 -104 -423 -275 -523 -80 -46 -362 -181 -380 -181 -5 0 -18
-9 -30 -20 -18 -17 -22 -32 -22 -85 0 -44 5 -68 16 -79 26 -26 21 -28 260 84
213 100 276 135 339 186 155 129 248 302 272 505 15 131 7 641 -11 724 -9 44
-46 128 -76 175 -65 102 -230 222 -335 245 -66 15 -203 12 -300 -4z"/>
</g>
</svg>
